# xmcd
#
# Track frame offsets:
#	150
#	13357
#	30606
#	47379
#	63214
#	79740
#	96566
#	116887
#	130110
#	145635
#	164089
#	166313
#
# Disc length: 2505 seconds
#
# Revision: 0
# Processed by: cddbd v1.5.2PL0 Copyright (c) Steve Scherf et al.
# Submitted via: audiograbber 1.83.01
#
DISCID=a109c70c
DTITLE=Maria Rose - Originals
DYEAR=2009
DGENRE=Country
TTITLE0=Ice Mountain
TTITLE1=This Kind Of Certainty
TTITLE2=Harbour Island
TTITLE3=SomeOne Did
TTITLE4=Wild, Like Alaska
TTITLE5=Hearts Never Change
TTITLE6=Thirty Years Ago
TTITLE7=One Ounce Of Good
TTITLE8=You Are The Flame
TTITLE9=Laissez Les Bon Temps Roulez
TTITLE10=Intro to:
TTITLE11=(We Need To Be) The RE-United States
EXTD=
EXTT0=
EXTT1=
EXTT2=
EXTT3=
EXTT4=
EXTT5=
EXTT6=
EXTT7=
EXTT8=
EXTT9=
EXTT10=
EXTT11=
PLAYORDER=
